<svg xmlns="http://www.w3.org/2000/svg" viewBox="0 0 100 100">
  <defs>
    <linearGradient id="grad1" x1="0%" y1="0%" x2="100%" y2="100%">
      <stop offset="0%" style="stop-color:rgb(239,68,68);stop-opacity:1" />
      <stop offset="50%" style="stop-color:rgb(168,85,247);stop-opacity:1" />
      <stop offset="100%" style="stop-color:rgb(59,130,246);stop-opacity:1" />
    </linearGradient>
  </defs>

  <!-- Shield background -->
  <path d="M50 10 L80 25 L80 50 Q80 75 50 90 Q20 75 20 50 L20 25 Z"
        fill="url(#grad1)" opacity="0.9"/>

  <!-- Inner shield detail -->
  <path d="M50 20 L70 30 L70 50 Q70 68 50 80 Q30 68 30 50 L30 30 Z"
        fill="none" stroke="white" stroke-width="2"/>

  <!-- Cyber circuit pattern -->
  <circle cx="50" cy="45" r="8" fill="white"/>
  <line x1="50" y1="45" x2="35" y2="35" stroke="white" stroke-width="2"/>
  <line x1="50" y1="45" x2="65" y2="35" stroke="white" stroke-width="2"/>
  <line x1="50" y1="45" x2="50" y2="60" stroke="white" stroke-width="2"/>
  <circle cx="35" cy="35" r="4" fill="white"/>
  <circle cx="65" cy="35" r="4" fill="white"/>
  <circle cx="50" cy="60" r="4" fill="white"/>
</svg>
